<?xml version="1.0" encoding="UTF-8"?><svg id="Layer_1" xmlns="http://www.w3.org/2000/svg" viewBox="0 0 1457.17 322.98"><defs><style>.cls-1{fill:#fff;}</style></defs><polygon class="cls-1" points="210.07 311.18 95.12 0 0 0 0 322.98 48.17 322.98 48.17 11.9 163.08 322.98 258.24 322.98 258.24 0 210.07 0 210.07 311.18"/><polygon class="cls-1" points="877.18 0 792.31 119.05 707.43 0 646.86 0 762.02 161.53 646.92 322.98 707.5 322.98 792.31 204.01 877.12 322.98 937.69 322.98 822.6 161.53 937.76 0 877.18 0"/><polygon class="cls-1" points="595.91 0 535.34 0 650.5 161.53 535.4 322.98 595.97 322.98 711.07 161.53 595.91 0"/><polygon class="cls-1" points="306.14 322.98 518.47 322.98 518.47 276.92 354.56 276.92 354.56 184.52 509.2 184.52 509.2 138.46 354.56 138.46 354.56 46.2 518.47 46.2 518.47 0 306.14 0 306.14 322.98"/><polygon class="cls-1" points="954.66 322.98 1166.99 322.98 1166.99 276.92 1003.07 276.92 1003.07 184.52 1157.72 184.52 1157.72 138.46 1003.07 138.46 1003.07 46.2 1166.99 46.2 1166.99 0 954.66 0 954.66 322.98"/><path class="cls-1" d="M1358.55,184.39c53.48-2.66,94.95-36.41,94.95-92.1,0-58.5-45.06-92.29-101.82-92.29h-144.62v322.98h48.17v-138.4h42.87l98.49,138.4h60.59l-98.62-138.59ZM1255.22,138.46V46.2h94.1c31.8,0,55.55,16.88,55.55,46.33s-23.75,45.93-55.55,45.93h-94.1Z"/></svg>